<svg xmlns="http://www.w3.org/2000/svg" width="240" height="240" viewBox="0 0 240 240" role="img" aria-label="Male avatar">
  <defs>
    <linearGradient id="mBg" x1="0" y1="0" x2="1" y2="1">
      <stop offset="0%" stop-color="#22d3ee"/>
      <stop offset="55%" stop-color="#2563eb"/>
      <stop offset="100%" stop-color="#1e3a8a"/>
    </linearGradient>
    <linearGradient id="mShirt" x1="0" y1="0" x2="1" y2="1">
      <stop offset="0%" stop-color="#0f172a"/>
      <stop offset="100%" stop-color="#334155"/>
    </linearGradient>
  </defs>
  <rect width="240" height="240" rx="120" fill="url(#mBg)"/>
  <circle cx="120" cy="120" r="98" fill="none" stroke="rgba(255,255,255,0.25)" stroke-width="2"/>
  <circle cx="120" cy="94" r="40" fill="#f9dcc3"/>
  <path d="M74 96c0-27 18-47 46-47 28 0 46 20 46 47v11H74z" fill="#111827"/>
  <path d="M52 214c8-44 36-66 68-66s60 22 68 66" fill="#f8fafc"/>
  <path d="M82 214c7-30 22-47 38-47s31 17 38 47" fill="url(#mShirt)"/>
  <circle cx="92" cy="90" r="3" fill="#111827"/>
  <circle cx="148" cy="90" r="3" fill="#111827"/>
  <path d="M104 108q16 10 32 0" fill="none" stroke="#b45309" stroke-width="3" stroke-linecap="round"/>
</svg>
