<svg xmlns="http://www.w3.org/2000/svg" width="240" height="240" viewBox="0 0 240 240" role="img" aria-label="Female avatar">
  <defs>
    <linearGradient id="fBg" x1="0" y1="0" x2="1" y2="1">
      <stop offset="0%" stop-color="#f472b6"/>
      <stop offset="55%" stop-color="#db2777"/>
      <stop offset="100%" stop-color="#7e22ce"/>
    </linearGradient>
    <linearGradient id="fShirt" x1="0" y1="0" x2="1" y2="1">
      <stop offset="0%" stop-color="#be185d"/>
      <stop offset="100%" stop-color="#831843"/>
    </linearGradient>
  </defs>
  <rect width="240" height="240" rx="120" fill="url(#fBg)"/>
  <circle cx="120" cy="120" r="98" fill="none" stroke="rgba(255,255,255,0.24)" stroke-width="2"/>
  <circle cx="120" cy="96" r="38" fill="#f9dcc3"/>
  <path d="M68 108c0-36 22-60 52-60s52 24 52 60v16H68z" fill="#4c1d3f"/>
  <path d="M50 214c9-44 36-66 70-66s61 22 70 66" fill="#fff1f8"/>
  <path d="M86 214c7-30 22-46 34-46s27 16 34 46" fill="url(#fShirt)"/>
  <circle cx="94" cy="92" r="3" fill="#4c1d3f"/>
  <circle cx="146" cy="92" r="3" fill="#4c1d3f"/>
  <path d="M105 108q15 9 30 0" fill="none" stroke="#9d174d" stroke-width="3" stroke-linecap="round"/>
</svg>
