<svg xmlns="http://www.w3.org/2000/svg" width="240" height="240" viewBox="0 0 240 240" role="img" aria-label="Dietitian avatar PN"><defs><linearGradient id="g8" x1="0" y1="0" x2="1" y2="1"><stop offset="0%" stop-color="#f9a8d4"/><stop offset="100%" stop-color="#db2777"/></linearGradient></defs><rect width="240" height="240" rx="120" fill="url(#g8)"/><circle cx="120" cy="120" r="95" fill="none" stroke="rgba(255,255,255,0.24)" stroke-width="2"/><circle cx="120" cy="120" r="78" fill="rgba(255,255,255,0.14)"/><path d="M68 110c0-35 22-60 52-60s52 25 52 60v16H68z" fill="rgba(76,29,63,0.78)"/><circle cx="120" cy="98" r="37" fill="rgba(255,226,205,0.9)"/><path d="M50 214c9-42 36-64 70-64s61 22 70 64" fill="rgba(255,245,250,0.9)"/><path d="M86 214c7-28 22-44 34-44s27 16 34 44" fill="rgba(131,24,67,0.88)"/><rect x="86" y="178" width="68" height="28" rx="14" fill="rgba(255,255,255,0.24)"/><text x="120" y="197" text-anchor="middle" font-family="Outfit, Segoe UI, Arial, sans-serif" font-size="16" font-weight="800" fill="#ffffff" letter-spacing="1">PN</text></svg>