<svg xmlns="http://www.w3.org/2000/svg" width="240" height="240" viewBox="0 0 240 240" role="img" aria-label="Dietitian avatar AS"><defs><linearGradient id="g7" x1="0" y1="0" x2="1" y2="1"><stop offset="0%" stop-color="#34d399"/><stop offset="100%" stop-color="#0f766e"/></linearGradient></defs><rect width="240" height="240" rx="120" fill="url(#g7)"/><circle cx="120" cy="120" r="95" fill="none" stroke="rgba(255,255,255,0.24)" stroke-width="2"/><circle cx="120" cy="120" r="78" fill="rgba(255,255,255,0.14)"/><path d="M74 98c0-27 18-47 46-47 28 0 46 20 46 47v11H74z" fill="rgba(17,24,39,0.8)"/><circle cx="120" cy="96" r="39" fill="rgba(255,226,205,0.9)"/><path d="M52 214c8-42 36-64 68-64s60 22 68 64" fill="rgba(248,250,252,0.9)"/><path d="M82 214c7-29 22-45 38-45s31 16 38 45" fill="rgba(30,41,59,0.88)"/><rect x="86" y="178" width="68" height="28" rx="14" fill="rgba(255,255,255,0.24)"/><text x="120" y="197" text-anchor="middle" font-family="Outfit, Segoe UI, Arial, sans-serif" font-size="16" font-weight="800" fill="#ffffff" letter-spacing="1">AS</text></svg>